<svg id="Logo" xmlns="http://www.w3.org/2000/svg" viewBox="0 0 246.15 200.0126"><g id="Logo-2"><path id="white_background" d="M221.95,51.29c.15,2.17.15,4.34.15,6.53,0,66.73-50.8,143.69-143.69,143.69v-.04A142.966,142.966,0,0,1,1,178.83a102.7262,102.7262,0,0,0,12.02.73A101.4067,101.4067,0,0,0,75.74,157.9a50.5644,50.5644,0,0,1-47.18-35.07,50.3378,50.3378,0,0,0,22.8-.87,50.5052,50.5052,0,0,1-40.51-49.5v-.64a50.1807,50.1807,0,0,0,22.92,6.32A50.5641,50.5641,0,0,1,18.14,10.71,143.3335,143.3335,0,0,0,122.22,63.47a50.5485,50.5485,0,0,1,86.06-46.06A101.3365,101.3365,0,0,0,240.35,5.15a50.6892,50.6892,0,0,1-22.2,27.93,100.4349,100.4349,0,0,0,29-7.95A102.5944,102.5944,0,0,1,221.95,51.29Z" transform="translate(-1 -1.4974)" style="fill:#1d9bf0"></path></g></svg>